<?xml version="1.0" standalone="no"?>
<!DOCTYPE svg PUBLIC "-//W3C//DTD SVG 20010904//EN"
 "http://www.w3.org/TR/2001/REC-SVG-20010904/DTD/svg10.dtd">
<svg version="1.0" xmlns="http://www.w3.org/2000/svg"
 width="857.000000pt" height="864.000000pt" viewBox="0 0 857.000000 864.000000"
 preserveAspectRatio="xMidYMid meet">

<g transform="translate(0.000000,864.000000) scale(0.100000,-0.100000)"
fill="#000000" stroke="none">
<path d="M1989 8548 c0 -2 -3 -63 -5 -137 l-5 -135 -37 -50 c-20 -28 -51 -71
-67 -95 l-29 -43 -71 6 c-38 4 -209 11 -380 16 -170 4 -317 11 -325 14 -8 3
-109 12 -225 21 -116 9 -273 27 -350 41 -153 27 -381 54 -452 54 l-44 0 3 -37
c3 -35 5 -38 38 -41 19 -1 96 -14 170 -27 182 -34 268 -44 445 -55 210 -13
390 -28 530 -46 66 -9 225 -18 353 -21 141 -4 232 -10 232 -16 0 -17 -290
-418 -409 -567 l-45 -55 95 -4 c52 -1 243 3 425 10 183 6 339 9 349 5 15 -6
17 -29 15 -274 -1 -147 -2 -294 -1 -326 l1 -59 258 7 c141 4 309 9 373 12
l117 5 6 -108 c4 -59 8 -119 9 -133 l2 -25 120 0 120 0 1 -395 c1 -217 2 -405
3 -418 1 -22 4 -21 91 23 325 163 595 224 1000 225 278 0 610 -50 790 -120 25
-10 72 -28 105 -41 73 -27 260 -119 336 -165 31 -19 61 -34 66 -34 17 0 -5
135 -32 195 -39 85 -60 111 -119 149 -32 21 -63 51 -78 77 -14 24 -45 62 -68
83 -49 45 -203 126 -239 126 -13 0 -22 3 -18 6 21 22 302 -46 394 -96 21 -11
41 -20 45 -20 42 0 488 -265 488 -290 0 -4 11 -12 24 -18 58 -26 266 -217 397
-366 24 -27 55 -61 68 -75 13 -14 35 -44 50 -66 14 -22 28 -42 31 -45 15 -13
52 -73 98 -160 83 -156 174 -441 212 -660 6 -36 16 -87 21 -115 28 -141 18
-572 -17 -708 -28 -114 -107 -361 -158 -498 l-25 -66 67 -26 c239 -93 245 -95
258 -54 3 12 21 54 39 92 34 74 90 247 124 380 66 261 89 752 46 960 -8 39
-22 111 -31 160 -31 171 -84 314 -220 590 -133 269 -197 358 -428 590 -148
148 -220 210 -330 285 -37 25 -95 65 -131 90 -142 100 -236 153 -395 223 -288
127 -595 206 -915 236 -125 11 -229 62 -340 165 -44 40 -77 77 -73 81 11 11
144 24 258 25 125 0 294 -15 405 -35 44 -9 107 -20 140 -26 340 -64 676 -190
980 -367 476 -278 922 -690 1097 -1013 205 -378 300 -650 344 -984 17 -131 19
-489 3 -690 -14 -191 -66 -413 -137 -590 -24 -60 -48 -121 -53 -135 -4 -14
-21 -61 -38 -105 -17 -44 -31 -85 -31 -92 0 -6 21 -19 48 -29 26 -9 79 -30
117 -47 39 -16 93 -36 120 -44 28 -8 73 -26 102 -39 28 -13 54 -24 57 -24 8 0
205 -88 246 -109 19 -11 77 -35 129 -55 52 -20 100 -40 105 -45 27 -20 57 -19
71 2 44 70 145 433 204 737 62 322 61 301 61 918 0 569 0 570 -25 688 -51 239
-82 336 -188 584 -209 490 -332 671 -657 969 -137 125 -443 376 -545 446 -192
133 -287 191 -543 336 -49 28 -241 125 -292 147 -86 38 -386 150 -500 187 -63
21 -141 46 -173 56 -84 28 -208 56 -365 84 -327 56 -351 59 -687 59 -352 1
-461 -7 -850 -65 -133 -20 -312 -65 -363 -91 -20 -10 -26 -8 -55 19 -17 17
-62 48 -99 68 -38 20 -77 49 -88 63 -57 79 -138 172 -162 186 -15 9 -50 24
-78 32 -51 15 -73 37 -85 85 l-6 25 83 -3 c447 -17 627 -25 703 -33 50 -5 160
-8 245 -5 211 5 752 -13 930 -30 211 -21 296 -25 575 -30 138 -2 392 -7 565
-10 188 -4 370 -3 450 3 140 10 814 0 1040 -17 63 -4 352 -6 643 -3 l527 5 0
50 0 49 -47 -6 c-97 -13 -798 -18 -963 -7 -157 10 -1005 16 -1863 13 -296 -1
-429 2 -515 13 -204 26 -1048 60 -1492 60 -337 1 -661 18 -880 47 -157 20
-167 23 -200 53 -47 42 -78 61 -128 76 -32 9 -66 37 -144 116 -57 57 -113 106
-125 109 -13 3 -31 20 -42 38 -37 59 -174 168 -182 144z"/>
<path d="M1855 7319 c-110 -4 -285 -8 -389 -10 l-188 -2 -28 -31 c-16 -17 -48
-59 -72 -93 -99 -141 -177 -244 -258 -343 -74 -90 -195 -246 -306 -394 -17
-22 -38 -47 -47 -55 -10 -7 -17 -22 -17 -33 0 -18 6 -19 92 -13 147 9 710 26
715 22 2 -3 -49 -57 -113 -122 -104 -106 -278 -314 -390 -465 -152 -206 -330
-529 -443 -805 -135 -328 -166 -443 -223 -845 -17 -120 -21 -198 -22 -455 -1
-404 19 -611 80 -835 14 -52 39 -147 55 -210 40 -154 73 -256 122 -368 38 -90
41 -94 67 -88 29 5 194 84 245 116 31 19 114 60 122 60 5 0 465 229 470 234 2
1 -15 39 -37 84 -58 121 -146 390 -174 532 -45 229 -56 500 -31 781 32 361
135 695 334 1086 116 228 231 399 386 573 71 81 309 315 355 350 25 19 47 37
50 41 10 13 124 89 133 89 5 0 6 -61 3 -152 -8 -193 -14 -238 -30 -238 -18 0
-251 -231 -317 -315 -209 -263 -340 -474 -404 -650 -177 -490 -235 -787 -222
-1143 10 -265 45 -417 176 -753 52 -132 60 -145 92 -133 66 25 229 116 229
128 0 8 -16 45 -35 83 -62 124 -104 274 -146 527 -20 116 -21 152 -15 345 3
119 12 250 20 291 12 68 63 280 85 355 87 292 154 443 276 625 76 113 244 305
257 292 4 -4 4 -73 -1 -158 -6 -82 -12 -225 -16 -319 -6 -192 -8 -190 65 -68
191 317 379 515 681 712 l96 63 5 308 c3 169 3 354 0 410 l-5 103 -114 -5
c-78 -4 -116 -2 -120 6 -4 6 -10 65 -13 131 l-5 119 -110 -2 c-60 -1 -226 -7
-369 -13 -165 -7 -262 -7 -268 -1 -6 6 -10 142 -11 333 l-2 324 -35 1 c-19 1
-125 -2 -235 -7z"/>
<path d="M5090 5318 c-47 -57 -176 -210 -289 -342 -112 -131 -231 -271 -264
-310 -32 -39 -93 -108 -134 -154 -42 -45 -84 -93 -95 -107 -11 -14 -23 -25
-27 -25 -9 0 -43 140 -101 420 -57 273 -113 524 -117 530 -2 2 -18 -11 -35
-30 -16 -19 -62 -69 -101 -110 -79 -83 -154 -168 -243 -275 -60 -73 -233 -265
-269 -300 -20 -20 -184 -207 -280 -320 -27 -32 -71 -82 -96 -109 -26 -28 -93
-105 -150 -171 -150 -174 -152 -176 -172 -195 -29 -28 -7 -32 123 -25 133 8
163 25 45 25 -74 0 -87 6 -62 32 20 20 175 195 242 272 33 38 90 104 126 145
36 42 78 90 93 106 16 17 83 93 150 170 66 77 139 160 162 185 23 25 59 65 79
90 20 25 58 68 84 95 25 28 77 88 116 135 102 125 143 167 149 149 6 -17 23
-93 77 -364 22 -110 56 -270 74 -355 19 -85 43 -204 55 -265 22 -117 58 -295
67 -332 l5 -23 -270 0 c-204 0 -272 -3 -279 -12 -6 -7 -40 -89 -77 -183 -37
-93 -85 -213 -106 -265 -47 -116 -152 -384 -215 -544 -25 -66 -54 -138 -64
-160 -10 -23 -26 -60 -36 -84 -10 -23 -15 -45 -12 -48 16 -16 36 12 79 112 64
150 147 348 163 392 7 21 33 84 58 142 24 58 53 128 65 155 11 28 39 97 61
155 45 121 105 259 118 270 4 5 137 10 295 12 157 2 289 6 292 9 6 5 -15 129
-59 349 l-27 134 24 21 c20 16 113 124 217 250 131 161 453 540 470 555 4 3
26 30 51 60 25 30 57 68 72 84 l27 30 5 -25 c3 -13 24 -107 46 -209 23 -102
59 -264 82 -360 22 -96 53 -236 69 -310 15 -74 32 -148 38 -165 14 -43 44
-196 38 -201 -2 -2 -133 -7 -291 -11 l-286 -6 -21 -46 c-12 -25 -30 -71 -40
-101 -10 -30 -23 -64 -28 -75 -37 -83 -51 -116 -51 -123 0 -11 -100 -277 -150
-397 -23 -55 -64 -161 -91 -235 -27 -74 -65 -174 -83 -222 -19 -48 -32 -89
-29 -91 2 -3 13 -3 23 0 12 3 30 31 50 82 17 42 44 108 60 146 40 95 170 425
220 560 23 61 63 162 89 225 27 63 57 138 67 165 l20 50 159 6 c88 4 229 7
313 8 176 1 163 -11 132 127 -11 49 -29 130 -40 179 -10 50 -35 160 -56 245
-20 85 -49 211 -65 280 -16 69 -55 239 -86 378 -31 138 -59 252 -63 252 -3 0
-44 -46 -90 -102z"/>
<path d="M7785 1899 c-142 -77 -313 -159 -331 -159 -4 0 -25 -9 -48 -19 -197
-93 -341 -143 -666 -232 -149 -42 -538 -66 -1225 -79 -291 -5 -741 -14 -1000
-20 -258 -7 -634 -11 -835 -10 -201 1 -673 -2 -1050 -5 -798 -9 -790 -9 -1112
76 -152 41 -218 68 -402 163 -88 45 -172 87 -186 91 -14 4 -56 23 -93 41 -37
18 -92 38 -122 45 -47 10 -57 10 -79 -4 -35 -24 -44 -63 -51 -248 l-6 -167 35
-27 c19 -15 102 -56 183 -92 81 -36 153 -68 158 -72 22 -16 120 -55 355 -141
58 -21 134 -50 170 -63 36 -14 108 -30 160 -37 52 -7 120 -18 151 -25 65 -14
1415 -3 1734 14 105 6 420 13 700 16 594 7 821 12 1110 25 116 5 336 12 490
16 154 3 325 10 380 15 55 4 183 13 285 19 201 12 428 47 555 85 44 13 114 34
155 45 41 12 103 33 137 46 34 13 66 24 71 24 5 0 49 16 98 36 49 20 109 42
134 50 25 8 54 19 65 24 11 5 62 27 112 49 51 22 106 49 122 60 16 12 33 21
38 21 4 1 18 9 30 19 23 19 26 59 24 333 -1 139 -6 148 -84 148 -44 -1 -69
-10 -162 -61z"/>
<path d="M7973 956 c-92 -53 -228 -105 -563 -216 -47 -15 -130 -44 -184 -64
-136 -50 -416 -123 -561 -146 -106 -16 -203 -19 -845 -24 -399 -3 -846 -8
-995 -12 -525 -11 -2663 -20 -2865 -13 -113 4 -239 13 -280 19 -78 11 -438
124 -593 186 -49 20 -120 47 -156 59 -36 13 -104 39 -151 59 -47 20 -90 36
-97 36 -7 0 -33 11 -59 25 -26 14 -52 25 -59 25 -7 0 -16 -59 -27 -177 -15
-165 -15 -181 1 -213 21 -45 89 -90 188 -125 43 -15 98 -35 123 -45 25 -11 97
-39 160 -64 63 -24 185 -71 270 -104 261 -102 343 -121 585 -138 205 -14 1030
-19 1240 -8 84 4 1522 5 2050 1 407 -3 1456 13 1525 24 161 25 381 79 565 139
83 27 195 60 250 74 115 28 285 81 332 102 17 8 35 14 39 14 5 0 48 16 96 36
l88 37 0 207 c0 230 -7 330 -24 330 -6 0 -30 -11 -53 -24z"/>
</g>
</svg>
